<?xml version="1.0" encoding="utf-8"?>
<svg xmlns="http://www.w3.org/2000/svg" xmlns:xlink="http://www.w3.org/1999/xlink" version="1.1"  width="1510" height="780">

<line x1="100" y1="50" x2="100" y2="400" stroke="rgb(0, 0, 0)" />
<line x1="100" y1="400" x2="400" y2="400" stroke="rgb(0, 0, 0)" />
<circle cx="8.19042e+006" cy="125" r="3" fill="rgb(0, 0, 0)" />
<text x="400" y="420" fill="rgb(0, 0, 0)" >poids 1</text>
<text x="20" y="50" fill="rgb(0, 0, 0)" >poids 2</text>
<line x1="100" y1="50" x2="100" y2="400" stroke="rgb(0, 0, 0)" />
<line x1="100" y1="400" x2="400" y2="400" stroke="rgb(0, 0, 0)" />
<circle cx="436" cy="143" r="3" fill="rgb(0, 0, 0)" />
<text x="400" y="420" fill="rgb(0, 0, 0)" >poids 1</text>
<text x="20" y="50" fill="rgb(0, 0, 0)" >poids 2</text>
<line x1="100" y1="50" x2="100" y2="400" stroke="rgb(0, 0, 0)" />
<line x1="100" y1="400" x2="400" y2="400" stroke="rgb(0, 0, 0)" />
<circle cx="447" cy="163" r="3" fill="rgb(0, 0, 0)" />
<text x="400" y="420" fill="rgb(0, 0, 0)" >poids 1</text>
<text x="20" y="50" fill="rgb(0, 0, 0)" >poids 2</text>
<line x1="100" y1="50" x2="100" y2="400" stroke="rgb(0, 0, 0)" />
<line x1="100" y1="400" x2="400" y2="400" stroke="rgb(0, 0, 0)" />
<circle cx="460" cy="178" r="3" fill="rgb(0, 0, 0)" />
<text x="400" y="420" fill="rgb(0, 0, 0)" >poids 1</text>
<text x="20" y="50" fill="rgb(0, 0, 0)" >poids 2</text>
<line x1="100" y1="50" x2="100" y2="400" stroke="rgb(0, 0, 0)" />
<line x1="100" y1="400" x2="400" y2="400" stroke="rgb(0, 0, 0)" />
<circle cx="482" cy="196" r="3" fill="rgb(0, 0, 0)" />
<text x="400" y="420" fill="rgb(0, 0, 0)" >poids 1</text>
<text x="20" y="50" fill="rgb(0, 0, 0)" >poids 2</text>
<line x1="100" y1="50" x2="100" y2="400" stroke="rgb(0, 0, 0)" />
<line x1="100" y1="400" x2="400" y2="400" stroke="rgb(0, 0, 0)" />
<circle cx="499" cy="216" r="3" fill="rgb(0, 0, 0)" />
<text x="400" y="420" fill="rgb(0, 0, 0)" >poids 1</text>
<text x="20" y="50" fill="rgb(0, 0, 0)" >poids 2</text>
<line x1="100" y1="50" x2="100" y2="400" stroke="rgb(0, 0, 0)" />
<line x1="100" y1="400" x2="400" y2="400" stroke="rgb(0, 0, 0)" />
<circle cx="518" cy="231" r="3" fill="rgb(0, 0, 0)" />
<text x="400" y="420" fill="rgb(0, 0, 0)" >poids 1</text>
<text x="20" y="50" fill="rgb(0, 0, 0)" >poids 2</text>
<line x1="100" y1="50" x2="100" y2="400" stroke="rgb(0, 0, 0)" />
<line x1="100" y1="400" x2="400" y2="400" stroke="rgb(0, 0, 0)" />
<circle cx="534" cy="250" r="3" fill="rgb(0, 0, 0)" />
<text x="400" y="420" fill="rgb(0, 0, 0)" >poids 1</text>
<text x="20" y="50" fill="rgb(0, 0, 0)" >poids 2</text>
<line x1="100" y1="50" x2="100" y2="400" stroke="rgb(0, 0, 0)" />
<line x1="100" y1="400" x2="400" y2="400" stroke="rgb(0, 0, 0)" />
<circle cx="552" cy="264" r="3" fill="rgb(0, 0, 0)" />
<text x="400" y="420" fill="rgb(0, 0, 0)" >poids 1</text>
<text x="20" y="50" fill="rgb(0, 0, 0)" >poids 2</text>
<line x1="100" y1="50" x2="100" y2="400" stroke="rgb(0, 0, 0)" />
<line x1="100" y1="400" x2="400" y2="400" stroke="rgb(0, 0, 0)" />
<circle cx="565" cy="280" r="3" fill="rgb(0, 0, 0)" />
<text x="400" y="420" fill="rgb(0, 0, 0)" >poids 1</text>
<text x="20" y="50" fill="rgb(0, 0, 0)" >poids 2</text>
  

<defs>
    <radialGradient id="redball" cx="30%" cy="30%" r="100%" fx="30%" fy="30%">
      <stop offset="0%" style="stop-color:rgb(255,250,250)" />
      <stop offset="3%" style="stop-color:rgb(255,250,250)" />
      <stop offset="7%" style="stop-color:rgb(255,160,160)" />
      <stop offset="70%" style="stop-color:rgb(255,0,0)" />
      <stop offset="100%" style="stop-color:rgb(255,0,0)" />
    </radialGradient>
    <radialGradient id="greenball" cx="30%" cy="30%" r="100%" fx="30%" fy="30%">
      <stop offset="0%" style="stop-color:rgb(250,255,250)" />
      <stop offset="3%" style="stop-color:rgb(250,255,250)" />
      <stop offset="7%" style="stop-color:rgb(160,255,160)" />
      <stop offset="70%" style="stop-color:rgb(0,255,0)" />
      <stop offset="100%" style="stop-color:rgb(0,255,0)" />
    </radialGradient>
    <radialGradient id="blueball" cx="30%" cy="30%" r="100%" fx="30%" fy="30%">
      <stop offset="0%" style="stop-color:rgb(250,250,255)" />
      <stop offset="3%" style="stop-color:rgb(250,250,255)" />
      <stop offset="7%" style="stop-color:rgb(160,160,255)" />
      <stop offset="70%" style="stop-color:rgb(0,0,255)" />
      <stop offset="100%" style="stop-color:rgb(0,255,0)" />
    </radialGradient>
    <radialGradient id="yellowball" cx="30%" cy="30%" r="100%" fx="30%" fy="30%">
      <stop offset="0%" style="stop-color:rgb(255,255,250)" />
      <stop offset="3%" style="stop-color:rgb(255,255,250)" />
      <stop offset="7%" style="stop-color:rgb(255,255,160)" />
      <stop offset="70%" style="stop-color:rgb(255,255,0)" />
      <stop offset="100%" style="stop-color:rgb(255,255,0)" />
    </radialGradient>
    <radialGradient id="greyball" cx="30%" cy="30%" r="100%" fx="30%" fy="30%">
      <stop offset="0%" style="stop-color:rgb(250,250,250)" />
      <stop offset="3%" style="stop-color:rgb(250,250,250)" />
      <stop offset="7%" style="stop-color:rgb(160,160,160)" />
      <stop offset="70%" style="stop-color:rgb(100,100,100)" />
      <stop offset="100%" style="stop-color:rgb(100,100,100)" />
    </radialGradient>
  </defs>


</svg>
