<?xml version="1.0" encoding="utf-8"?>
<svg xmlns="http://www.w3.org/2000/svg" xmlns:xlink="http://www.w3.org/1999/xlink" version="1.1"  width="1510" height="780">

<svg width="450" height="450" viewBox="0 0 200 200" class="house">
  <g transform = "scale(0.2)">
    <rect fill="#8C5E58" width="20" height="50" x="110" y="90" />
    <polygon fill="#6B6570" points="100,100 150,150 50,150" />
    <rect fill="#8C5E58" width="80" height="50" x="60" y="150" />
    <rect fill="#0D1F22" width="20" height="30" x="100" y="170" />
  </g>
</svg>
<svg width="450" height="450" viewBox="0 0 200 200" class="house">
  <g transform = "scale(0.2)">
    <rect fill="#8C5E58" width="20" height="50" x="110" y="90" />
    <polygon fill="#6B6570" points="100,100 150,150 50,150" />
    <rect fill="#8C5E58" width="80" height="50" x="60" y="150" />
    <rect fill="#0D1F22" width="20" height="30" x="100" y="170" />
  </g>
</svg>
<svg width="450" height="450" viewBox="0 0 200 200" class="house">
  <g transform = "scale(0.2)">
    <rect fill="#8C5E58" width="20" height="50" x="110" y="90" />
    <polygon fill="#6B6570" points="100,100 150,150 50,150" />
    <rect fill="#8C5E58" width="80" height="50" x="60" y="150" />
    <rect fill="#0D1F22" width="20" height="30" x="100" y="170" />
  </g>
</svg>
<svg width="450" height="450" viewBox="0 0 200 200" class="house">
  <g transform = "scale(0.2)">
    <rect fill="#8C5E58" width="20" height="50" x="110" y="90" />
    <polygon fill="#6B6570" points="100,100 150,150 50,150" />
    <rect fill="#8C5E58" width="80" height="50" x="60" y="150" />
    <rect fill="#0D1F22" width="20" height="30" x="100" y="170" />
  </g>
</svg>
<svg width="450" height="450" viewBox="0 0 200 200" class="house">
  <g transform = "scale(0.2)">
    <rect fill="#8C5E58" width="20" height="50" x="110" y="90" />
    <polygon fill="#6B6570" points="100,100 150,150 50,150" />
    <rect fill="#8C5E58" width="80" height="50" x="60" y="150" />
    <rect fill="#0D1F22" width="20" height="30" x="100" y="170" />
  </g>
</svg>
<svg width="450" height="450" viewBox="0 0 200 200" class="house">
  <g transform = "scale(0.2)">
    <rect fill="#8C5E58" width="20" height="50" x="110" y="90" />
    <polygon fill="#6B6570" points="100,100 150,150 50,150" />
    <rect fill="#8C5E58" width="80" height="50" x="60" y="150" />
    <rect fill="#0D1F22" width="20" height="30" x="100" y="170" />
  </g>
</svg>
<svg width="450" height="450" viewBox="0 0 200 200" class="house">
  <g transform = "scale(0.2)">
    <rect fill="#8C5E58" width="20" height="50" x="110" y="90" />
    <polygon fill="#6B6570" points="100,100 150,150 50,150" />
    <rect fill="#8C5E58" width="80" height="50" x="60" y="150" />
    <rect fill="#0D1F22" width="20" height="30" x="100" y="170" />
  </g>
</svg>
<svg width="450" height="450" viewBox="0 0 200 200" class="house">
  <g transform = "scale(0.2)">
    <rect fill="#8C5E58" width="20" height="50" x="110" y="90" />
    <polygon fill="#6B6570" points="100,100 150,150 50,150" />
    <rect fill="#8C5E58" width="80" height="50" x="60" y="150" />
    <rect fill="#0D1F22" width="20" height="30" x="100" y="170" />
  </g>
</svg>
<line x1="100" y1="100" x2="400" y2="100" stroke="black" stroke-width="20" />
<line x1="100" y1="100" x2="400" y2="100" stroke="white" stroke-width="2" stroke-dasharray="4" />
<line x1="100" y1="100" x2="100" y2="400" stroke="black" stroke-width="20" />
<line x1="100" y1="100" x2="100" y2="400" stroke="white" stroke-width="2" stroke-dasharray="4" />
<line x1="100" y1="100" x2="200" y2="200" stroke="black" stroke-width="20" />
<line x1="100" y1="100" x2="200" y2="200" stroke="white" stroke-width="2" stroke-dasharray="4" />
<line x1="200" y1="200" x2="300" y2="200" stroke="black" stroke-width="20" />
<line x1="200" y1="200" x2="300" y2="200" stroke="white" stroke-width="2" stroke-dasharray="4" />
<line x1="400" y1="100" x2="300" y2="200" stroke="black" stroke-width="20" />
<line x1="400" y1="100" x2="300" y2="200" stroke="white" stroke-width="2" stroke-dasharray="4" />
<line x1="400" y1="100" x2="400" y2="400" stroke="black" stroke-width="20" />
<line x1="400" y1="100" x2="400" y2="400" stroke="white" stroke-width="2" stroke-dasharray="4" />
<line x1="200" y1="200" x2="200" y2="300" stroke="black" stroke-width="20" />
<line x1="200" y1="200" x2="200" y2="300" stroke="white" stroke-width="2" stroke-dasharray="4" />
<line x1="300" y1="200" x2="300" y2="300" stroke="black" stroke-width="20" />
<line x1="300" y1="200" x2="300" y2="300" stroke="white" stroke-width="2" stroke-dasharray="4" />
<line x1="200" y1="300" x2="100" y2="400" stroke="black" stroke-width="20" />
<line x1="200" y1="300" x2="100" y2="400" stroke="white" stroke-width="2" stroke-dasharray="4" />
<line x1="200" y1="300" x2="300" y2="300" stroke="black" stroke-width="20" />
<line x1="200" y1="300" x2="300" y2="300" stroke="white" stroke-width="2" stroke-dasharray="4" />
<line x1="300" y1="300" x2="400" y2="400" stroke="black" stroke-width="20" />
<line x1="300" y1="300" x2="400" y2="400" stroke="white" stroke-width="2" stroke-dasharray="4" />
<line x1="100" y1="400" x2="400" y2="400" stroke="black" stroke-width="20" />
<line x1="100" y1="400" x2="400" y2="400" stroke="white" stroke-width="2" stroke-dasharray="4" />
<svg width="450" height="450" viewBox="0 0 200 200" class="house">
  <g transform = "scale(0.2)">
    <rect fill="#8C5E58" width="20" height="50" x="110" y="90" />
    <polygon fill="#6B6570" points="100,100 150,150 50,150" />
    <rect fill="#8C5E58" width="80" height="50" x="60" y="150" />
    <rect fill="#0D1F22" width="20" height="30" x="100" y="170" />
  </g>
</svg>
<svg width="450" height="450" viewBox="0 0 200 200" class="house">
  <g transform = "scale(0.2)">
    <rect fill="#8C5E58" width="20" height="50" x="110" y="90" />
    <polygon fill="#6B6570" points="100,100 150,150 50,150" />
    <rect fill="#8C5E58" width="80" height="50" x="60" y="150" />
    <rect fill="#0D1F22" width="20" height="30" x="100" y="170" />
  </g>
</svg>
<svg width="450" height="450" viewBox="0 0 200 200" class="house">
  <g transform = "scale(0.2)">
    <rect fill="#8C5E58" width="20" height="50" x="110" y="90" />
    <polygon fill="#6B6570" points="100,100 150,150 50,150" />
    <rect fill="#8C5E58" width="80" height="50" x="60" y="150" />
    <rect fill="#0D1F22" width="20" height="30" x="100" y="170" />
  </g>
</svg>
<svg width="450" height="450" viewBox="0 0 200 200" class="house">
  <g transform = "scale(0.2)">
    <rect fill="#8C5E58" width="20" height="50" x="110" y="90" />
    <polygon fill="#6B6570" points="100,100 150,150 50,150" />
    <rect fill="#8C5E58" width="80" height="50" x="60" y="150" />
    <rect fill="#0D1F22" width="20" height="30" x="100" y="170" />
  </g>
</svg>
<svg width="450" height="450" viewBox="0 0 200 200" class="house">
  <g transform = "scale(0.2)">
    <rect fill="#8C5E58" width="20" height="50" x="110" y="90" />
    <polygon fill="#6B6570" points="100,100 150,150 50,150" />
    <rect fill="#8C5E58" width="80" height="50" x="60" y="150" />
    <rect fill="#0D1F22" width="20" height="30" x="100" y="170" />
  </g>
</svg>
<svg width="450" height="450" viewBox="0 0 200 200" class="house">
  <g transform = "scale(0.2)">
    <rect fill="#8C5E58" width="20" height="50" x="110" y="90" />
    <polygon fill="#6B6570" points="100,100 150,150 50,150" />
    <rect fill="#8C5E58" width="80" height="50" x="60" y="150" />
    <rect fill="#0D1F22" width="20" height="30" x="100" y="170" />
  </g>
</svg>
<svg width="450" height="450" viewBox="0 0 200 200" class="house">
  <g transform = "scale(0.2)">
    <rect fill="#8C5E58" width="20" height="50" x="110" y="90" />
    <polygon fill="#6B6570" points="100,100 150,150 50,150" />
    <rect fill="#8C5E58" width="80" height="50" x="60" y="150" />
    <rect fill="#0D1F22" width="20" height="30" x="100" y="170" />
  </g>
</svg>
<svg width="450" height="450" viewBox="0 0 200 200" class="house">
  <g transform = "scale(0.2)">
    <rect fill="#8C5E58" width="20" height="50" x="110" y="90" />
    <polygon fill="#6B6570" points="100,100 150,150 50,150" />
    <rect fill="#8C5E58" width="80" height="50" x="60" y="150" />
    <rect fill="#0D1F22" width="20" height="30" x="100" y="170" />
  </g>
</svg>
<line x1="750" y1="200" x2="750" y2="300" stroke="black" stroke-width="20" />
<line x1="750" y1="200" x2="750" y2="300" stroke="white" stroke-width="2" stroke-dasharray="4" />
<line x1="550" y1="100" x2="550" y2="400" stroke="black" stroke-width="20" />
<line x1="550" y1="100" x2="550" y2="400" stroke="white" stroke-width="2" stroke-dasharray="4" />
<line x1="650" y1="300" x2="550" y2="400" stroke="black" stroke-width="20" />
<line x1="650" y1="300" x2="550" y2="400" stroke="white" stroke-width="2" stroke-dasharray="4" />
<line x1="750" y1="300" x2="850" y2="400" stroke="black" stroke-width="20" />
<line x1="750" y1="300" x2="850" y2="400" stroke="white" stroke-width="2" stroke-dasharray="4" />
<line x1="550" y1="400" x2="850" y2="400" stroke="black" stroke-width="20" />
<line x1="550" y1="400" x2="850" y2="400" stroke="white" stroke-width="2" stroke-dasharray="4" />
<line x1="550" y1="100" x2="850" y2="100" stroke="black" stroke-width="20" />
<line x1="550" y1="100" x2="850" y2="100" stroke="white" stroke-width="2" stroke-dasharray="4" />
<line x1="650" y1="200" x2="750" y2="200" stroke="black" stroke-width="20" />
<line x1="650" y1="200" x2="750" y2="200" stroke="white" stroke-width="2" stroke-dasharray="4" />
  

<defs>
    <radialGradient id="redball" cx="30%" cy="30%" r="100%" fx="30%" fy="30%">
      <stop offset="0%" style="stop-color:rgb(255,250,250)" />
      <stop offset="3%" style="stop-color:rgb(255,250,250)" />
      <stop offset="7%" style="stop-color:rgb(255,160,160)" />
      <stop offset="70%" style="stop-color:rgb(255,0,0)" />
      <stop offset="100%" style="stop-color:rgb(255,0,0)" />
    </radialGradient>
    <radialGradient id="greenball" cx="30%" cy="30%" r="100%" fx="30%" fy="30%">
      <stop offset="0%" style="stop-color:rgb(250,255,250)" />
      <stop offset="3%" style="stop-color:rgb(250,255,250)" />
      <stop offset="7%" style="stop-color:rgb(160,255,160)" />
      <stop offset="70%" style="stop-color:rgb(0,255,0)" />
      <stop offset="100%" style="stop-color:rgb(0,255,0)" />
    </radialGradient>
    <radialGradient id="blueball" cx="30%" cy="30%" r="100%" fx="30%" fy="30%">
      <stop offset="0%" style="stop-color:rgb(250,250,255)" />
      <stop offset="3%" style="stop-color:rgb(250,250,255)" />
      <stop offset="7%" style="stop-color:rgb(160,160,255)" />
      <stop offset="70%" style="stop-color:rgb(0,0,255)" />
      <stop offset="100%" style="stop-color:rgb(0,255,0)" />
    </radialGradient>
    <radialGradient id="yellowball" cx="30%" cy="30%" r="100%" fx="30%" fy="30%">
      <stop offset="0%" style="stop-color:rgb(255,255,250)" />
      <stop offset="3%" style="stop-color:rgb(255,255,250)" />
      <stop offset="7%" style="stop-color:rgb(255,255,160)" />
      <stop offset="70%" style="stop-color:rgb(255,255,0)" />
      <stop offset="100%" style="stop-color:rgb(255,255,0)" />
    </radialGradient>
    <radialGradient id="greyball" cx="30%" cy="30%" r="100%" fx="30%" fy="30%">
      <stop offset="0%" style="stop-color:rgb(250,250,250)" />
      <stop offset="3%" style="stop-color:rgb(250,250,250)" />
      <stop offset="7%" style="stop-color:rgb(160,160,160)" />
      <stop offset="70%" style="stop-color:rgb(100,100,100)" />
      <stop offset="100%" style="stop-color:rgb(100,100,100)" />
    </radialGradient>
  </defs>


</svg>
