<?xml version="1.0" encoding="utf-8"?>
<svg xmlns="http://www.w3.org/2000/svg" xmlns:xlink="http://www.w3.org/1999/xlink" version="1.1"  width="1510" height="780">

<circle cx="100" cy="100" r="3" fill="rgb(200, 0, 0)" />
<text x="107.7" y="97" fill="rgb(200, 0, 0)" >0</text>
<circle cx="200" cy="100" r="3" fill="rgb(200, 0, 0)" />
<text x="207.7" y="97" fill="rgb(200, 0, 0)" >1</text>
<circle cx="100" cy="200" r="3" fill="rgb(200, 0, 0)" />
<text x="107.7" y="197" fill="rgb(200, 0, 0)" >2</text>
<circle cx="200" cy="200" r="3" fill="rgb(200, 0, 0)" />
<text x="207.7" y="197" fill="rgb(200, 0, 0)" >3</text>
<line x1="100" y1="100" x2="200" y2="100" stroke="black" />
<text x="150" y="96.3" fill="rgb(0, 119, 179)" >0</text>
<text x="132" y="81.3" fill="rgb(0, 200, 0)" >5</text>
<text x="128" y="96.3" fill="rgb(0, 200, 0)" >6</text>
<line x1="100" y1="100" x2="100" y2="200" stroke="black" />
<text x="100" y="146.3" fill="rgb(0, 119, 179)" >1</text>
<text x="82" y="131.3" fill="rgb(0, 200, 0)" >2</text>
<text x="78" y="146.3" fill="rgb(0, 200, 0)" >9</text>
<line x1="200" y1="100" x2="100" y2="200" stroke="black" />
<text x="150" y="146.3" fill="rgb(0, 119, 179)" >2</text>
<text x="132" y="131.3" fill="rgb(0, 200, 0)" >9</text>
<text x="128" y="146.3" fill="rgb(0, 200, 0)" >1</text>
<line x1="200" y1="100" x2="200" y2="200" stroke="black" />
<text x="200" y="146.3" fill="rgb(0, 119, 179)" >3</text>
<text x="182" y="131.3" fill="rgb(0, 200, 0)" >6</text>
<text x="178" y="146.3" fill="rgb(0, 200, 0)" >2</text>
<line x1="100" y1="200" x2="200" y2="200" stroke="black" />
<text x="150" y="196.3" fill="rgb(0, 119, 179)" >4</text>
<text x="132" y="181.3" fill="rgb(0, 200, 0)" >7</text>
<text x="128" y="196.3" fill="rgb(0, 200, 0)" >5</text>
<circle cx="600" cy="100" r="3" fill="rgb(200, 0, 0)" />
<text x="607.7" y="97" fill="rgb(200, 0, 0)" >0</text>
<circle cx="700" cy="100" r="3" fill="rgb(200, 0, 0)" />
<text x="707.7" y="97" fill="rgb(200, 0, 0)" >1</text>
<circle cx="600" cy="200" r="3" fill="rgb(200, 0, 0)" />
<text x="607.7" y="197" fill="rgb(200, 0, 0)" >2</text>
<circle cx="700" cy="200" r="3" fill="rgb(200, 0, 0)" />
<text x="707.7" y="197" fill="rgb(200, 0, 0)" >3</text>
<line x1="600" y1="100" x2="600" y2="200" stroke="black" />
<text x="600" y="146.3" fill="rgb(0, 119, 179)" >5</text>
<line x1="600" y1="100" x2="700" y2="100" stroke="black" />
<text x="650" y="96.3" fill="rgb(0, 119, 179)" >2</text>
<line x1="700" y1="100" x2="700" y2="200" stroke="black" />
<text x="700" y="146.3" fill="rgb(0, 119, 179)" >9</text>
  

<defs>
    <radialGradient id="redball" cx="30%" cy="30%" r="100%" fx="30%" fy="30%">
      <stop offset="0%" style="stop-color:rgb(255,250,250)" />
      <stop offset="3%" style="stop-color:rgb(255,250,250)" />
      <stop offset="7%" style="stop-color:rgb(255,160,160)" />
      <stop offset="70%" style="stop-color:rgb(255,0,0)" />
      <stop offset="100%" style="stop-color:rgb(255,0,0)" />
    </radialGradient>
    <radialGradient id="greenball" cx="30%" cy="30%" r="100%" fx="30%" fy="30%">
      <stop offset="0%" style="stop-color:rgb(250,255,250)" />
      <stop offset="3%" style="stop-color:rgb(250,255,250)" />
      <stop offset="7%" style="stop-color:rgb(160,255,160)" />
      <stop offset="70%" style="stop-color:rgb(0,255,0)" />
      <stop offset="100%" style="stop-color:rgb(0,255,0)" />
    </radialGradient>
    <radialGradient id="blueball" cx="30%" cy="30%" r="100%" fx="30%" fy="30%">
      <stop offset="0%" style="stop-color:rgb(250,250,255)" />
      <stop offset="3%" style="stop-color:rgb(250,250,255)" />
      <stop offset="7%" style="stop-color:rgb(160,160,255)" />
      <stop offset="70%" style="stop-color:rgb(0,0,255)" />
      <stop offset="100%" style="stop-color:rgb(0,255,0)" />
    </radialGradient>
    <radialGradient id="yellowball" cx="30%" cy="30%" r="100%" fx="30%" fy="30%">
      <stop offset="0%" style="stop-color:rgb(255,255,250)" />
      <stop offset="3%" style="stop-color:rgb(255,255,250)" />
      <stop offset="7%" style="stop-color:rgb(255,255,160)" />
      <stop offset="70%" style="stop-color:rgb(255,255,0)" />
      <stop offset="100%" style="stop-color:rgb(255,255,0)" />
    </radialGradient>
    <radialGradient id="greyball" cx="30%" cy="30%" r="100%" fx="30%" fy="30%">
      <stop offset="0%" style="stop-color:rgb(250,250,250)" />
      <stop offset="3%" style="stop-color:rgb(250,250,250)" />
      <stop offset="7%" style="stop-color:rgb(160,160,160)" />
      <stop offset="70%" style="stop-color:rgb(100,100,100)" />
      <stop offset="100%" style="stop-color:rgb(100,100,100)" />
    </radialGradient>
  </defs>


</svg>
