<?xml version="1.0" encoding="utf-8"?>
<svg xmlns="http://www.w3.org/2000/svg" xmlns:xlink="http://www.w3.org/1999/xlink" version="1.1"  width="1510" height="780">

<line x1="100" y1="50" x2="100" y2="400" stroke="rgb(0, 0, 0)" />
<line x1="100" y1="400" x2="400" y2="400" stroke="rgb(0, 0, 0)" />
<circle cx="434" cy="157" r="3" fill="rgb(0, 0, 0)" />
<text x="400" y="420" fill="rgb(0, 0, 0)" >poids 1</text>
<text x="20" y="50" fill="rgb(0, 0, 0)" >poids 2</text>
<line x1="100" y1="50" x2="100" y2="400" stroke="rgb(0, 0, 0)" />
<line x1="100" y1="400" x2="400" y2="400" stroke="rgb(0, 0, 0)" />
<circle cx="479" cy="187" r="3" fill="rgb(0, 0, 0)" />
<text x="400" y="420" fill="rgb(0, 0, 0)" >poids 1</text>
<text x="20" y="50" fill="rgb(0, 0, 0)" >poids 2</text>
<line x1="100" y1="50" x2="100" y2="400" stroke="rgb(0, 0, 0)" />
<line x1="100" y1="400" x2="400" y2="400" stroke="rgb(0, 0, 0)" />
<circle cx="524" cy="248" r="3" fill="rgb(0, 0, 0)" />
<text x="400" y="420" fill="rgb(0, 0, 0)" >poids 1</text>
<text x="20" y="50" fill="rgb(0, 0, 0)" >poids 2</text>
<line x1="100" y1="50" x2="100" y2="400" stroke="rgb(0, 0, 0)" />
<line x1="100" y1="400" x2="400" y2="400" stroke="rgb(0, 0, 0)" />
<circle cx="603" cy="342" r="3" fill="rgb(0, 0, 0)" />
<text x="400" y="420" fill="rgb(0, 0, 0)" >poids 1</text>
<text x="20" y="50" fill="rgb(0, 0, 0)" >poids 2</text>
<line x1="100" y1="50" x2="100" y2="400" stroke="rgb(0, 0, 0)" />
<line x1="100" y1="400" x2="400" y2="400" stroke="rgb(0, 0, 0)" />
<circle cx="714" cy="465" r="3" fill="rgb(0, 0, 0)" />
<text x="400" y="420" fill="rgb(0, 0, 0)" >poids 1</text>
<text x="20" y="50" fill="rgb(0, 0, 0)" >poids 2</text>
<line x1="100" y1="50" x2="100" y2="400" stroke="rgb(0, 0, 0)" />
<line x1="100" y1="400" x2="400" y2="400" stroke="rgb(0, 0, 0)" />
<circle cx="855" cy="619" r="3" fill="rgb(0, 0, 0)" />
<text x="400" y="420" fill="rgb(0, 0, 0)" >poids 1</text>
<text x="20" y="50" fill="rgb(0, 0, 0)" >poids 2</text>
<line x1="100" y1="50" x2="100" y2="400" stroke="rgb(0, 0, 0)" />
<line x1="100" y1="400" x2="400" y2="400" stroke="rgb(0, 0, 0)" />
<circle cx="1030" cy="806" r="3" fill="rgb(0, 0, 0)" />
<text x="400" y="420" fill="rgb(0, 0, 0)" >poids 1</text>
<text x="20" y="50" fill="rgb(0, 0, 0)" >poids 2</text>
<line x1="100" y1="50" x2="100" y2="400" stroke="rgb(0, 0, 0)" />
<line x1="100" y1="400" x2="400" y2="400" stroke="rgb(0, 0, 0)" />
<circle cx="1237" cy="1022" r="3" fill="rgb(0, 0, 0)" />
<text x="400" y="420" fill="rgb(0, 0, 0)" >poids 1</text>
<text x="20" y="50" fill="rgb(0, 0, 0)" >poids 2</text>
<line x1="100" y1="50" x2="100" y2="400" stroke="rgb(0, 0, 0)" />
<line x1="100" y1="400" x2="400" y2="400" stroke="rgb(0, 0, 0)" />
<circle cx="1467" cy="1272" r="3" fill="rgb(0, 0, 0)" />
<text x="400" y="420" fill="rgb(0, 0, 0)" >poids 1</text>
<text x="20" y="50" fill="rgb(0, 0, 0)" >poids 2</text>
<line x1="100" y1="50" x2="100" y2="400" stroke="rgb(0, 0, 0)" />
<line x1="100" y1="400" x2="400" y2="400" stroke="rgb(0, 0, 0)" />
<circle cx="1730" cy="1552" r="3" fill="rgb(0, 0, 0)" />
<text x="400" y="420" fill="rgb(0, 0, 0)" >poids 1</text>
<text x="20" y="50" fill="rgb(0, 0, 0)" >poids 2</text>
  

<defs>
    <radialGradient id="redball" cx="30%" cy="30%" r="100%" fx="30%" fy="30%">
      <stop offset="0%" style="stop-color:rgb(255,250,250)" />
      <stop offset="3%" style="stop-color:rgb(255,250,250)" />
      <stop offset="7%" style="stop-color:rgb(255,160,160)" />
      <stop offset="70%" style="stop-color:rgb(255,0,0)" />
      <stop offset="100%" style="stop-color:rgb(255,0,0)" />
    </radialGradient>
    <radialGradient id="greenball" cx="30%" cy="30%" r="100%" fx="30%" fy="30%">
      <stop offset="0%" style="stop-color:rgb(250,255,250)" />
      <stop offset="3%" style="stop-color:rgb(250,255,250)" />
      <stop offset="7%" style="stop-color:rgb(160,255,160)" />
      <stop offset="70%" style="stop-color:rgb(0,255,0)" />
      <stop offset="100%" style="stop-color:rgb(0,255,0)" />
    </radialGradient>
    <radialGradient id="blueball" cx="30%" cy="30%" r="100%" fx="30%" fy="30%">
      <stop offset="0%" style="stop-color:rgb(250,250,255)" />
      <stop offset="3%" style="stop-color:rgb(250,250,255)" />
      <stop offset="7%" style="stop-color:rgb(160,160,255)" />
      <stop offset="70%" style="stop-color:rgb(0,0,255)" />
      <stop offset="100%" style="stop-color:rgb(0,255,0)" />
    </radialGradient>
    <radialGradient id="yellowball" cx="30%" cy="30%" r="100%" fx="30%" fy="30%">
      <stop offset="0%" style="stop-color:rgb(255,255,250)" />
      <stop offset="3%" style="stop-color:rgb(255,255,250)" />
      <stop offset="7%" style="stop-color:rgb(255,255,160)" />
      <stop offset="70%" style="stop-color:rgb(255,255,0)" />
      <stop offset="100%" style="stop-color:rgb(255,255,0)" />
    </radialGradient>
    <radialGradient id="greyball" cx="30%" cy="30%" r="100%" fx="30%" fy="30%">
      <stop offset="0%" style="stop-color:rgb(250,250,250)" />
      <stop offset="3%" style="stop-color:rgb(250,250,250)" />
      <stop offset="7%" style="stop-color:rgb(160,160,160)" />
      <stop offset="70%" style="stop-color:rgb(100,100,100)" />
      <stop offset="100%" style="stop-color:rgb(100,100,100)" />
    </radialGradient>
  </defs>


</svg>
