<?xml version="1.0" encoding="utf-8"?>
<svg xmlns="http://www.w3.org/2000/svg" xmlns:xlink="http://www.w3.org/1999/xlink" version="1.1"  width="1510" height="780">

<line x1="100" y1="50" x2="100" y2="400" stroke="rgb(0, 0, 0)" />
<line x1="100" y1="400" x2="400" y2="400" stroke="rgb(0, 0, 0)" />
<circle cx="8.19038e+006" cy="8.19009e+006" r="3" fill="rgb(0, 0, 0)" />
<text x="400" y="420" fill="rgb(0, 0, 0)" >poids 1</text>
<text x="20" y="50" fill="rgb(0, 0, 0)" >poids 2</text>
<line x1="100" y1="50" x2="100" y2="400" stroke="rgb(0, 0, 0)" />
<line x1="100" y1="400" x2="400" y2="400" stroke="rgb(0, 0, 0)" />
<circle cx="8.19039e+006" cy="8.1901e+006" r="3" fill="rgb(0, 0, 0)" />
<text x="400" y="420" fill="rgb(0, 0, 0)" >poids 1</text>
<text x="20" y="50" fill="rgb(0, 0, 0)" >poids 2</text>
<line x1="100" y1="50" x2="100" y2="400" stroke="rgb(0, 0, 0)" />
<line x1="100" y1="400" x2="400" y2="400" stroke="rgb(0, 0, 0)" />
<circle cx="415" cy="131" r="3" fill="rgb(0, 0, 0)" />
<text x="400" y="420" fill="rgb(0, 0, 0)" >poids 1</text>
<text x="20" y="50" fill="rgb(0, 0, 0)" >poids 2</text>
<line x1="100" y1="50" x2="100" y2="400" stroke="rgb(0, 0, 0)" />
<line x1="100" y1="400" x2="400" y2="400" stroke="rgb(0, 0, 0)" />
<circle cx="423" cy="143" r="3" fill="rgb(0, 0, 0)" />
<text x="400" y="420" fill="rgb(0, 0, 0)" >poids 1</text>
<text x="20" y="50" fill="rgb(0, 0, 0)" >poids 2</text>
<line x1="100" y1="50" x2="100" y2="400" stroke="rgb(0, 0, 0)" />
<line x1="100" y1="400" x2="400" y2="400" stroke="rgb(0, 0, 0)" />
<circle cx="429" cy="158" r="3" fill="rgb(0, 0, 0)" />
<text x="400" y="420" fill="rgb(0, 0, 0)" >poids 1</text>
<text x="20" y="50" fill="rgb(0, 0, 0)" >poids 2</text>
<line x1="100" y1="50" x2="100" y2="400" stroke="rgb(0, 0, 0)" />
<line x1="100" y1="400" x2="400" y2="400" stroke="rgb(0, 0, 0)" />
<circle cx="8.19041e+006" cy="8.19014e+006" r="3" fill="rgb(0, 0, 0)" />
<text x="400" y="420" fill="rgb(0, 0, 0)" >poids 1</text>
<text x="20" y="50" fill="rgb(0, 0, 0)" >poids 2</text>
<line x1="100" y1="50" x2="100" y2="400" stroke="rgb(0, 0, 0)" />
<line x1="100" y1="400" x2="400" y2="400" stroke="rgb(0, 0, 0)" />
<circle cx="439" cy="178" r="3" fill="rgb(0, 0, 0)" />
<text x="400" y="420" fill="rgb(0, 0, 0)" >poids 1</text>
<text x="20" y="50" fill="rgb(0, 0, 0)" >poids 2</text>
<line x1="100" y1="50" x2="100" y2="400" stroke="rgb(0, 0, 0)" />
<line x1="100" y1="400" x2="400" y2="400" stroke="rgb(0, 0, 0)" />
<circle cx="8.19042e+006" cy="8.19016e+006" r="3" fill="rgb(0, 0, 0)" />
<text x="400" y="420" fill="rgb(0, 0, 0)" >poids 1</text>
<text x="20" y="50" fill="rgb(0, 0, 0)" >poids 2</text>
<line x1="100" y1="50" x2="100" y2="400" stroke="rgb(0, 0, 0)" />
<line x1="100" y1="400" x2="400" y2="400" stroke="rgb(0, 0, 0)" />
<circle cx="450" cy="199" r="3" fill="rgb(0, 0, 0)" />
<text x="400" y="420" fill="rgb(0, 0, 0)" >poids 1</text>
<text x="20" y="50" fill="rgb(0, 0, 0)" >poids 2</text>
<line x1="100" y1="50" x2="100" y2="400" stroke="rgb(0, 0, 0)" />
<line x1="100" y1="400" x2="400" y2="400" stroke="rgb(0, 0, 0)" />
<circle cx="456" cy="214" r="3" fill="rgb(0, 0, 0)" />
<text x="400" y="420" fill="rgb(0, 0, 0)" >poids 1</text>
<text x="20" y="50" fill="rgb(0, 0, 0)" >poids 2</text>
<line x1="100" y1="50" x2="100" y2="400" stroke="rgb(0, 0, 0)" />
<line x1="100" y1="400" x2="400" y2="400" stroke="rgb(0, 0, 0)" />
<circle cx="8.19044e+006" cy="8.1902e+006" r="3" fill="rgb(0, 0, 0)" />
<text x="400" y="420" fill="rgb(0, 0, 0)" >poids 1</text>
<text x="20" y="50" fill="rgb(0, 0, 0)" >poids 2</text>
<line x1="100" y1="50" x2="100" y2="400" stroke="rgb(0, 0, 0)" />
<line x1="100" y1="400" x2="400" y2="400" stroke="rgb(0, 0, 0)" />
<circle cx="466" cy="234" r="3" fill="rgb(0, 0, 0)" />
<text x="400" y="420" fill="rgb(0, 0, 0)" >poids 1</text>
<text x="20" y="50" fill="rgb(0, 0, 0)" >poids 2</text>
<line x1="100" y1="50" x2="100" y2="400" stroke="rgb(0, 0, 0)" />
<line x1="100" y1="400" x2="400" y2="400" stroke="rgb(0, 0, 0)" />
<circle cx="469" cy="243" r="3" fill="rgb(0, 0, 0)" />
<text x="400" y="420" fill="rgb(0, 0, 0)" >poids 1</text>
<text x="20" y="50" fill="rgb(0, 0, 0)" >poids 2</text>
<line x1="100" y1="50" x2="100" y2="400" stroke="rgb(0, 0, 0)" />
<line x1="100" y1="400" x2="400" y2="400" stroke="rgb(0, 0, 0)" />
<circle cx="8.19045e+006" cy="8.19023e+006" r="3" fill="rgb(0, 0, 0)" />
<text x="400" y="420" fill="rgb(0, 0, 0)" >poids 1</text>
<text x="20" y="50" fill="rgb(0, 0, 0)" >poids 2</text>
<line x1="100" y1="50" x2="100" y2="400" stroke="rgb(0, 0, 0)" />
<line x1="100" y1="400" x2="400" y2="400" stroke="rgb(0, 0, 0)" />
<circle cx="483" cy="270" r="3" fill="rgb(0, 0, 0)" />
<text x="400" y="420" fill="rgb(0, 0, 0)" >poids 1</text>
<text x="20" y="50" fill="rgb(0, 0, 0)" >poids 2</text>
<line x1="100" y1="50" x2="100" y2="400" stroke="rgb(0, 0, 0)" />
<line x1="100" y1="400" x2="400" y2="400" stroke="rgb(0, 0, 0)" />
<circle cx="8.19046e+006" cy="8.19026e+006" r="3" fill="rgb(0, 0, 0)" />
<text x="400" y="420" fill="rgb(0, 0, 0)" >poids 1</text>
<text x="20" y="50" fill="rgb(0, 0, 0)" >poids 2</text>
<line x1="100" y1="50" x2="100" y2="400" stroke="rgb(0, 0, 0)" />
<line x1="100" y1="400" x2="400" y2="400" stroke="rgb(0, 0, 0)" />
<circle cx="493" cy="290" r="3" fill="rgb(0, 0, 0)" />
<text x="400" y="420" fill="rgb(0, 0, 0)" >poids 1</text>
<text x="20" y="50" fill="rgb(0, 0, 0)" >poids 2</text>
<line x1="100" y1="50" x2="100" y2="400" stroke="rgb(0, 0, 0)" />
<line x1="100" y1="400" x2="400" y2="400" stroke="rgb(0, 0, 0)" />
<circle cx="496" cy="299" r="3" fill="rgb(0, 0, 0)" />
<text x="400" y="420" fill="rgb(0, 0, 0)" >poids 1</text>
<text x="20" y="50" fill="rgb(0, 0, 0)" >poids 2</text>
<line x1="100" y1="50" x2="100" y2="400" stroke="rgb(0, 0, 0)" />
<line x1="100" y1="400" x2="400" y2="400" stroke="rgb(0, 0, 0)" />
<circle cx="504" cy="311" r="3" fill="rgb(0, 0, 0)" />
<text x="400" y="420" fill="rgb(0, 0, 0)" >poids 1</text>
<text x="20" y="50" fill="rgb(0, 0, 0)" >poids 2</text>
<line x1="100" y1="50" x2="100" y2="400" stroke="rgb(0, 0, 0)" />
<line x1="100" y1="400" x2="400" y2="400" stroke="rgb(0, 0, 0)" />
<circle cx="8.19048e+006" cy="8.1903e+006" r="3" fill="rgb(0, 0, 0)" />
<text x="400" y="420" fill="rgb(0, 0, 0)" >poids 1</text>
<text x="20" y="50" fill="rgb(0, 0, 0)" >poids 2</text>
<line x1="100" y1="50" x2="100" y2="400" stroke="rgb(0, 0, 0)" />
<line x1="100" y1="400" x2="400" y2="400" stroke="rgb(0, 0, 0)" />
<circle cx="518" cy="339" r="3" fill="rgb(0, 0, 0)" />
<text x="400" y="420" fill="rgb(0, 0, 0)" >poids 1</text>
<text x="20" y="50" fill="rgb(0, 0, 0)" >poids 2</text>
<line x1="100" y1="50" x2="100" y2="400" stroke="rgb(0, 0, 0)" />
<line x1="100" y1="400" x2="400" y2="400" stroke="rgb(0, 0, 0)" />
<circle cx="8.19049e+006" cy="8.19032e+006" r="3" fill="rgb(0, 0, 0)" />
<text x="400" y="420" fill="rgb(0, 0, 0)" >poids 1</text>
<text x="20" y="50" fill="rgb(0, 0, 0)" >poids 2</text>
<line x1="100" y1="50" x2="100" y2="400" stroke="rgb(0, 0, 0)" />
<line x1="100" y1="400" x2="400" y2="400" stroke="rgb(0, 0, 0)" />
<circle cx="8.1905e+006" cy="8.19033e+006" r="3" fill="rgb(0, 0, 0)" />
<text x="400" y="420" fill="rgb(0, 0, 0)" >poids 1</text>
<text x="20" y="50" fill="rgb(0, 0, 0)" >poids 2</text>
<line x1="100" y1="50" x2="100" y2="400" stroke="rgb(0, 0, 0)" />
<line x1="100" y1="400" x2="400" y2="400" stroke="rgb(0, 0, 0)" />
<circle cx="531" cy="367" r="3" fill="rgb(0, 0, 0)" />
<text x="400" y="420" fill="rgb(0, 0, 0)" >poids 1</text>
<text x="20" y="50" fill="rgb(0, 0, 0)" >poids 2</text>
<line x1="100" y1="50" x2="100" y2="400" stroke="rgb(0, 0, 0)" />
<line x1="100" y1="400" x2="400" y2="400" stroke="rgb(0, 0, 0)" />
<circle cx="537" cy="382" r="3" fill="rgb(0, 0, 0)" />
<text x="400" y="420" fill="rgb(0, 0, 0)" >poids 1</text>
<text x="20" y="50" fill="rgb(0, 0, 0)" >poids 2</text>
<line x1="100" y1="50" x2="100" y2="400" stroke="rgb(0, 0, 0)" />
<line x1="100" y1="400" x2="400" y2="400" stroke="rgb(0, 0, 0)" />
<circle cx="545" cy="395" r="3" fill="rgb(0, 0, 0)" />
<text x="400" y="420" fill="rgb(0, 0, 0)" >poids 1</text>
<text x="20" y="50" fill="rgb(0, 0, 0)" >poids 2</text>
<line x1="100" y1="50" x2="100" y2="400" stroke="rgb(0, 0, 0)" />
<line x1="100" y1="400" x2="400" y2="400" stroke="rgb(0, 0, 0)" />
<circle cx="8.19052e+006" cy="8.19038e+006" r="3" fill="rgb(0, 0, 0)" />
<text x="400" y="420" fill="rgb(0, 0, 0)" >poids 1</text>
<text x="20" y="50" fill="rgb(0, 0, 0)" >poids 2</text>
<line x1="100" y1="50" x2="100" y2="400" stroke="rgb(0, 0, 0)" />
<line x1="100" y1="400" x2="400" y2="400" stroke="rgb(0, 0, 0)" />
<circle cx="550" cy="411" r="3" fill="rgb(0, 0, 0)" />
<text x="400" y="420" fill="rgb(0, 0, 0)" >poids 1</text>
<text x="20" y="50" fill="rgb(0, 0, 0)" >poids 2</text>
<line x1="100" y1="50" x2="100" y2="400" stroke="rgb(0, 0, 0)" />
<line x1="100" y1="400" x2="400" y2="400" stroke="rgb(0, 0, 0)" />
<circle cx="8.19053e+006" cy="8.1904e+006" r="3" fill="rgb(0, 0, 0)" />
<text x="400" y="420" fill="rgb(0, 0, 0)" >poids 1</text>
<text x="20" y="50" fill="rgb(0, 0, 0)" >poids 2</text>
<line x1="100" y1="50" x2="100" y2="400" stroke="rgb(0, 0, 0)" />
<line x1="100" y1="400" x2="400" y2="400" stroke="rgb(0, 0, 0)" />
<circle cx="564" cy="438" r="3" fill="rgb(0, 0, 0)" />
<text x="400" y="420" fill="rgb(0, 0, 0)" >poids 1</text>
<text x="20" y="50" fill="rgb(0, 0, 0)" >poids 2</text>
<line x1="100" y1="50" x2="100" y2="400" stroke="rgb(0, 0, 0)" />
<line x1="100" y1="400" x2="400" y2="400" stroke="rgb(0, 0, 0)" />
<circle cx="572" cy="451" r="3" fill="rgb(0, 0, 0)" />
<text x="400" y="420" fill="rgb(0, 0, 0)" >poids 1</text>
<text x="20" y="50" fill="rgb(0, 0, 0)" >poids 2</text>
<line x1="100" y1="50" x2="100" y2="400" stroke="rgb(0, 0, 0)" />
<line x1="100" y1="400" x2="400" y2="400" stroke="rgb(0, 0, 0)" />
<circle cx="8.19055e+006" cy="8.19043e+006" r="3" fill="rgb(0, 0, 0)" />
<text x="400" y="420" fill="rgb(0, 0, 0)" >poids 1</text>
<text x="20" y="50" fill="rgb(0, 0, 0)" >poids 2</text>
<line x1="100" y1="50" x2="100" y2="400" stroke="rgb(0, 0, 0)" />
<line x1="100" y1="400" x2="400" y2="400" stroke="rgb(0, 0, 0)" />
<circle cx="577" cy="467" r="3" fill="rgb(0, 0, 0)" />
<text x="400" y="420" fill="rgb(0, 0, 0)" >poids 1</text>
<text x="20" y="50" fill="rgb(0, 0, 0)" >poids 2</text>
<line x1="100" y1="50" x2="100" y2="400" stroke="rgb(0, 0, 0)" />
<line x1="100" y1="400" x2="400" y2="400" stroke="rgb(0, 0, 0)" />
<circle cx="585" cy="479" r="3" fill="rgb(0, 0, 0)" />
<text x="400" y="420" fill="rgb(0, 0, 0)" >poids 1</text>
<text x="20" y="50" fill="rgb(0, 0, 0)" >poids 2</text>
<line x1="100" y1="50" x2="100" y2="400" stroke="rgb(0, 0, 0)" />
<line x1="100" y1="400" x2="400" y2="400" stroke="rgb(0, 0, 0)" />
<circle cx="8.19056e+006" cy="8.19047e+006" r="3" fill="rgb(0, 0, 0)" />
<text x="400" y="420" fill="rgb(0, 0, 0)" >poids 1</text>
<text x="20" y="50" fill="rgb(0, 0, 0)" >poids 2</text>
<line x1="100" y1="50" x2="100" y2="400" stroke="rgb(0, 0, 0)" />
<line x1="100" y1="400" x2="400" y2="400" stroke="rgb(0, 0, 0)" />
<circle cx="599" cy="507" r="3" fill="rgb(0, 0, 0)" />
<text x="400" y="420" fill="rgb(0, 0, 0)" >poids 1</text>
<text x="20" y="50" fill="rgb(0, 0, 0)" >poids 2</text>
<line x1="100" y1="50" x2="100" y2="400" stroke="rgb(0, 0, 0)" />
<line x1="100" y1="400" x2="400" y2="400" stroke="rgb(0, 0, 0)" />
<circle cx="601" cy="514" r="3" fill="rgb(0, 0, 0)" />
<text x="400" y="420" fill="rgb(0, 0, 0)" >poids 1</text>
<text x="20" y="50" fill="rgb(0, 0, 0)" >poids 2</text>
<line x1="100" y1="50" x2="100" y2="400" stroke="rgb(0, 0, 0)" />
<line x1="100" y1="400" x2="400" y2="400" stroke="rgb(0, 0, 0)" />
<circle cx="8.19058e+006" cy="8.1905e+006" r="3" fill="rgb(0, 0, 0)" />
<text x="400" y="420" fill="rgb(0, 0, 0)" >poids 1</text>
<text x="20" y="50" fill="rgb(0, 0, 0)" >poids 2</text>
<line x1="100" y1="50" x2="100" y2="400" stroke="rgb(0, 0, 0)" />
<line x1="100" y1="400" x2="400" y2="400" stroke="rgb(0, 0, 0)" />
<circle cx="8.19059e+006" cy="8.19051e+006" r="3" fill="rgb(0, 0, 0)" />
<text x="400" y="420" fill="rgb(0, 0, 0)" >poids 1</text>
<text x="20" y="50" fill="rgb(0, 0, 0)" >poids 2</text>
<line x1="100" y1="50" x2="100" y2="400" stroke="rgb(0, 0, 0)" />
<line x1="100" y1="400" x2="400" y2="400" stroke="rgb(0, 0, 0)" />
<circle cx="618" cy="550" r="3" fill="rgb(0, 0, 0)" />
<text x="400" y="420" fill="rgb(0, 0, 0)" >poids 1</text>
<text x="20" y="50" fill="rgb(0, 0, 0)" >poids 2</text>
<line x1="100" y1="50" x2="100" y2="400" stroke="rgb(0, 0, 0)" />
<line x1="100" y1="400" x2="400" y2="400" stroke="rgb(0, 0, 0)" />
<circle cx="626" cy="563" r="3" fill="rgb(0, 0, 0)" />
<text x="400" y="420" fill="rgb(0, 0, 0)" >poids 1</text>
<text x="20" y="50" fill="rgb(0, 0, 0)" >poids 2</text>
<line x1="100" y1="50" x2="100" y2="400" stroke="rgb(0, 0, 0)" />
<line x1="100" y1="400" x2="400" y2="400" stroke="rgb(0, 0, 0)" />
<circle cx="628" cy="570" r="3" fill="rgb(0, 0, 0)" />
<text x="400" y="420" fill="rgb(0, 0, 0)" >poids 1</text>
<text x="20" y="50" fill="rgb(0, 0, 0)" >poids 2</text>
<line x1="100" y1="50" x2="100" y2="400" stroke="rgb(0, 0, 0)" />
<line x1="100" y1="400" x2="400" y2="400" stroke="rgb(0, 0, 0)" />
<circle cx="8.1906e+006" cy="8.19055e+006" r="3" fill="rgb(0, 0, 0)" />
<text x="400" y="420" fill="rgb(0, 0, 0)" >poids 1</text>
<text x="20" y="50" fill="rgb(0, 0, 0)" >poids 2</text>
<line x1="100" y1="50" x2="100" y2="400" stroke="rgb(0, 0, 0)" />
<line x1="100" y1="400" x2="400" y2="400" stroke="rgb(0, 0, 0)" />
<circle cx="639" cy="591" r="3" fill="rgb(0, 0, 0)" />
<text x="400" y="420" fill="rgb(0, 0, 0)" >poids 1</text>
<text x="20" y="50" fill="rgb(0, 0, 0)" >poids 2</text>
<line x1="100" y1="50" x2="100" y2="400" stroke="rgb(0, 0, 0)" />
<line x1="100" y1="400" x2="400" y2="400" stroke="rgb(0, 0, 0)" />
<circle cx="8.19062e+006" cy="8.19058e+006" r="3" fill="rgb(0, 0, 0)" />
<text x="400" y="420" fill="rgb(0, 0, 0)" >poids 1</text>
<text x="20" y="50" fill="rgb(0, 0, 0)" >poids 2</text>
<line x1="100" y1="50" x2="100" y2="400" stroke="rgb(0, 0, 0)" />
<line x1="100" y1="400" x2="400" y2="400" stroke="rgb(0, 0, 0)" />
<circle cx="653" cy="619" r="3" fill="rgb(0, 0, 0)" />
<text x="400" y="420" fill="rgb(0, 0, 0)" >poids 1</text>
<text x="20" y="50" fill="rgb(0, 0, 0)" >poids 2</text>
<line x1="100" y1="50" x2="100" y2="400" stroke="rgb(0, 0, 0)" />
<line x1="100" y1="400" x2="400" y2="400" stroke="rgb(0, 0, 0)" />
<circle cx="655" cy="626" r="3" fill="rgb(0, 0, 0)" />
<text x="400" y="420" fill="rgb(0, 0, 0)" >poids 1</text>
<text x="20" y="50" fill="rgb(0, 0, 0)" >poids 2</text>
<line x1="100" y1="50" x2="100" y2="400" stroke="rgb(0, 0, 0)" />
<line x1="100" y1="400" x2="400" y2="400" stroke="rgb(0, 0, 0)" />
<circle cx="658" cy="635" r="3" fill="rgb(0, 0, 0)" />
<text x="400" y="420" fill="rgb(0, 0, 0)" >poids 1</text>
<text x="20" y="50" fill="rgb(0, 0, 0)" >poids 2</text>
<line x1="100" y1="50" x2="100" y2="400" stroke="rgb(0, 0, 0)" />
<line x1="100" y1="400" x2="400" y2="400" stroke="rgb(0, 0, 0)" />
<circle cx="8.19064e+006" cy="8.19062e+006" r="3" fill="rgb(0, 0, 0)" />
<text x="400" y="420" fill="rgb(0, 0, 0)" >poids 1</text>
<text x="20" y="50" fill="rgb(0, 0, 0)" >poids 2</text>
<line x1="100" y1="50" x2="100" y2="400" stroke="rgb(0, 0, 0)" />
<line x1="100" y1="400" x2="400" y2="400" stroke="rgb(0, 0, 0)" />
<circle cx="8.19065e+006" cy="8.19064e+006" r="3" fill="rgb(0, 0, 0)" />
<text x="400" y="420" fill="rgb(0, 0, 0)" >poids 1</text>
<text x="20" y="50" fill="rgb(0, 0, 0)" >poids 2</text>
  

<defs>
    <radialGradient id="redball" cx="30%" cy="30%" r="100%" fx="30%" fy="30%">
      <stop offset="0%" style="stop-color:rgb(255,250,250)" />
      <stop offset="3%" style="stop-color:rgb(255,250,250)" />
      <stop offset="7%" style="stop-color:rgb(255,160,160)" />
      <stop offset="70%" style="stop-color:rgb(255,0,0)" />
      <stop offset="100%" style="stop-color:rgb(255,0,0)" />
    </radialGradient>
    <radialGradient id="greenball" cx="30%" cy="30%" r="100%" fx="30%" fy="30%">
      <stop offset="0%" style="stop-color:rgb(250,255,250)" />
      <stop offset="3%" style="stop-color:rgb(250,255,250)" />
      <stop offset="7%" style="stop-color:rgb(160,255,160)" />
      <stop offset="70%" style="stop-color:rgb(0,255,0)" />
      <stop offset="100%" style="stop-color:rgb(0,255,0)" />
    </radialGradient>
    <radialGradient id="blueball" cx="30%" cy="30%" r="100%" fx="30%" fy="30%">
      <stop offset="0%" style="stop-color:rgb(250,250,255)" />
      <stop offset="3%" style="stop-color:rgb(250,250,255)" />
      <stop offset="7%" style="stop-color:rgb(160,160,255)" />
      <stop offset="70%" style="stop-color:rgb(0,0,255)" />
      <stop offset="100%" style="stop-color:rgb(0,255,0)" />
    </radialGradient>
    <radialGradient id="yellowball" cx="30%" cy="30%" r="100%" fx="30%" fy="30%">
      <stop offset="0%" style="stop-color:rgb(255,255,250)" />
      <stop offset="3%" style="stop-color:rgb(255,255,250)" />
      <stop offset="7%" style="stop-color:rgb(255,255,160)" />
      <stop offset="70%" style="stop-color:rgb(255,255,0)" />
      <stop offset="100%" style="stop-color:rgb(255,255,0)" />
    </radialGradient>
    <radialGradient id="greyball" cx="30%" cy="30%" r="100%" fx="30%" fy="30%">
      <stop offset="0%" style="stop-color:rgb(250,250,250)" />
      <stop offset="3%" style="stop-color:rgb(250,250,250)" />
      <stop offset="7%" style="stop-color:rgb(160,160,160)" />
      <stop offset="70%" style="stop-color:rgb(100,100,100)" />
      <stop offset="100%" style="stop-color:rgb(100,100,100)" />
    </radialGradient>
  </defs>


</svg>
